<svg class="icon_f09dde" aria-hidden="true" role="img" width="24" height="24" viewBox="0 0 24 24"><path fill="currentColor" fill-rule="evenodd" clip-rule="evenodd" d="M3.37868 2.87868C3.94129 2.31607 4.70435 2 5.5 2H19.5C20.2956 2 21.0587 2.31607 21.6213 2.87868C22.1839 3.44129 22.5 4.20435 22.5 5V19C22.5 19.7956 22.1839 20.5587 21.6213 21.1213C21.0587 21.6839 20.2956 22 19.5 22H5.5C4.70435 22 3.94129 21.6839 3.37868 21.1213C2.81607 20.5587 2.5 19.7956 2.5 19V5C2.5 4.20435 2.81607 3.44129 3.37868 2.87868ZM7.65332 16.3125H9.47832V7.6875H7.65332V16.3125ZM11.23 7.6875V16.3125H14.2925C15.6008 16.3125 16.6091 15.9417 17.3175 15.2C18.0341 14.4583 18.3925 13.3917 18.3925 12C18.3925 10.6083 18.0341 9.54167 17.3175 8.8C16.6091 8.05833 15.6008 7.6875 14.2925 7.6875H11.23ZM15.955 14.0625C15.5466 14.4625 14.9925 14.6625 14.2925 14.6625H13.055V9.3375H14.2925C14.9925 9.3375 15.5466 9.5375 15.955 9.9375C16.3633 10.3375 16.5675 11.025 16.5675 12C16.5675 12.975 16.3633 13.6625 15.955 14.0625Z"></path></svg>